# xmcd
# 
# Track frame offsets:
#     150
#     14175
#     30952
#     59232
#     86632
#     99439
#     118733
#     134690
#     152305
#     165965
#     182911
#     204040
# 
# Disc length: 3006
# 
# Revision: 4
# Processed by: cddbd v1.5.2PL0 Copyright (c) Steve Scherf et al.
# Submitted via: fre:ac v1.0.31
# 
DISCID=990bbc0c
DTITLE=Sue Foley - Change
DYEAR=2004
DGENRE=Blues
TTITLE0=Goin' Down The Road Again
TTITLE1=Hardworking Woman
TTITLE2=Doggie Treats
TTITLE3=Careless Love
TTITLE4=Change
TTITLE5=Bad Luck Woman
TTITLE6=Mournin' In The Morning
TTITLE7=Sugar In My Bowl
TTITLE8=Here Comes The Sun
TTITLE9=Me And My Chauffeur
TTITLE10=You Don't Have To Go
TTITLE11=Shake That Thing
EXTD=
EXTT0=
EXTT1=
EXTT2=
EXTT3=
EXTT4=
EXTT5=
EXTT6=
EXTT7=
EXTT8=
EXTT9=
EXTT10=
EXTT11=
PLAYORDER=
